<?xml version="1.0" encoding="UTF-8"?>
<svg id="Layer_2" data-name="Layer 2" xmlns="http://www.w3.org/2000/svg" viewBox="0 0 543.4 758.98">
  <defs>
    <style>
      .cls-1 {
        fill: #6ca2e4;
      }
    </style>
  </defs>
  <path class="cls-1" d="M475.88,62.61l-1,.09-.77.7-.79-1.47-.94-.34-.6-.68-1-.23h-1.24s-.57.58-.57.58l-1.15.72-2.75-.26-3.37-2.75-.26-1v-3.81s-.43-.51-.43-.51l.94-.68-.17-.43-2.84-2.86-.79-2.07,1-3.09,1-.7.26-1-.43-.85-.68-.62-.43-.6.51-.85.85-.53v-1.32s-1.2-.09-1.2-.09l-1.13.26-.68.68-2.33.79h-1.3s-4.03-.92-4.03-.92l-1,.43-1-.43-3-.09-2-.6-.94.51-.87.85h-1.11s-.7-.85-.7-.85l.26-1.11.53-.87.43-.43h-1.3s-1.11.43-1.11.43h-1.22s-.68-.72-.68-.72l.3-2.32-1.22.09-1.62,1-1.47-1.37-1.3-.11-.6-.43v-1.42s-1.11-.28-1.11-.28l-.53,1-1,.26-.26-1h-.89s.34,1,.34,1l1,1.39-1.22,1.54-1.9,1.39-.85.09,1.56-1.47-.53-.94v-2.21s-1-.09-1-.09l-.94-.51-1.22-.17-1.39-1.39h-2.67s-.77-.51-.77-.51l.18-.93-.29-.61-1.3.78-1.34.49-.73,1.1-1.58.37-.85,1.1-2.8,1.22-1.71.12-1.34.49-1.22.85-3.29.37v1.83s.72,1.33.72,1.33h-.02s-.73-1.35-.73-1.35v-1.82s3.29-.37,3.29-.37l1.22-.85,1.34-.49,1.71-.12,2.8-1.22.85-1.1,1.58-.37.73-1.1,1.34-.49,1-.76-2-1.43-1-.34-1.11-.77-.36-.87.45-1,2-1-.19-.51-.77-.68.68-.77,1-.53.85-.77-.26-.77-3.09,2.67-4.31.26-3.37-3.46-.17-.85.85-.87-.43-.85h-1.37s-1-.43-1-.43l-1.37-1.38.36-2.58-.22-1.2-.45-.85-.77-.68-2.5-3.54-2.16-.68-1.22-1.56-.94-.51h-1.3s-.94-.62-.94-.62l-.7-.77-.85-.51-.3-.06-.92.15-.68.77-.34,1h-4.14s-1.3-1.39-1.3-1.39l-.77.51v1.3s-.77.51-.77.51l-3.46.51-.43-1.11-.43.43-.17,1.22-1,.77-2.33.6-.94.7-1.13.34-2.41,5.08-.43.09-2.52-.34-.85.68v1.23s-.67.77-.67.77l-.26,1-.87,1.73-.19,1.32-.6.87-.87.51-1.47,1.53-.17,1.28-1.39,2.62-1.3.36-.77-.09.17.77,2.33,2.16,1.3.09,2.41,1.13,1,1.79,1,.7.68.85,1.47,3,.17,5.16-.6.51-.17-1.11-.53-1.13-.18-1.09-1.37-1.81-.11-1.19-.45-1.2-1.55-1.56-4-2.58h-1.3s-.77.68-.77.68l-.35,1.66-2.52,2.41-1.11.34-1.95,1.12-1,.26-2.83,1.87-3.52,1.11-.87.6-8.2.09-1.64,1.56-.61.94-.18-.43-1.61-.05-1.71-1.37-1-.34-2.41.51-.68.68h-1.3s-5.7,2.33-5.7,2.33l-1.45.09-1.13.7-2.5,2.5-2.41,1.11-1,.87-8.28,2.16h-1.37s-1,.43-1,.43l-1.9,1.47-1.2.34-1.13.68-.85,1-1.73,1.11-1,.34-.79.79-1.11.17-2.69,1.2-3.18,2.77-1.64,2.41-.77.6-.7,2-2.07,2.58-.09,1.22.62.85v2.5s-1.22,1.3-1.22,1.3l-.85.51-.87.87-.43.94-2.07,2.75-.85.7-.3.51-.21-.06-3.74,5.39.26,1.3.51,1-3.8,4.74-.43,2.33-.68.6-.34,1.22-1.39,1.73-.39,1,1.08.86h0s-1.09-.78-1.09-.78l-.7.53-1,.43-3.46,4.76-.85.77.43,2.07-.17.68.34.36,1.3.09.17,1.11-.51,1-.26,2.41-.53.77-.09,2.67-1.28,1.73-.34,1,.94.77-.51.68-.43,1.22-1.61,1.52-1.22.68-1.09.32h.01s.14.72.14.72l.86.43h1.38s.95-.34.95-.34l.78-.6.95.34,1.29,1.55.34,1.12v.12s-.34-1.12-.34-1.12l-1.29-1.55-.95-.34-.78.6-.95.34h-1.38s-.86-.43-.86-.43l-.32-.67-1.32.58-.6.87-.87.77-.85,1.9v1.3s-.26,1-.26,1l-.6.79-.36,1.11-3.78,3.2-1,.51-.68.77-.09,1.22,1.2.17.53,1.11,1,.45,1.3.17.51.68-.87.51-1.54-.34-.7-.68-2.67-1h-1.64s-3,1.39-3,1.39l-3.8.17-1.37,1.64-1.13.17-2.07,3.63-.43,2.24-.68.6,1,.77,1.13.51.09,1.13-.7-.17h-.94s-1.81,1.11-1.81,1.11l.26,1.39-.26,1-.77-1.13-1.81-1.56-2.16.53-.79.85-.09.51-1.54,2-6.47,19.23-1,1.3-.85,2.15-3.54,4.65-.43.94-2.07,2.69-2.47,2.19-1.05.47h0s-1.2.3-1.2.3l-.17,1.56-6.21,8.62-1.3,3.18.17,2.6-.09.34-.85,1.11-.36,1-1.88.85-.7,1.2-3.18,2.16.09.94.34.79.09,1.45-.6.7-1.64-.53,1.9.87.34.85-.68,1-.62.51-1.54-2-.62.34-.77.85-1.47.79.09,1.2-.51.87-1.9,1.11-.6,1,2.84,3.88-.09,1.11-.6.87-.26,1-.7-1.3.11-1.11-1,1.11-1-.09-.26-1.28.6-1.22-.09-1.2-.85.85-1.54,4.4,1.11.87.43.94.43.34.09-.17,1.2.77v1.3s-.43,1-.43,1l-2.65,3.86-.79.62-1,2.58.06,1.39,3,1.34,1.47,2.33.23,1.58.73,1.84.26,1.84,2.18,2.3-.85,1.11-.11,1.71.85,1.09,1.21.84h-.18s-1.11-.81-1.11-.81l-.85-1.1.12-1.71.85-1.1-2.2-2.32-.24-1.83-.73-1.83-.24-1.59-1.46-2.32-3-1.35-1,.25.34,1,.45.6-1,.53-2.22,2.84v.09s-1.81,2.92-1.81,2.92l-.85.53-3.8.09.17,1,1,.87-.09,2.5-.7.6-.43.94-.26,1.22-.6.85-.09,2.6-.09.26-.7,1v1.3s.43.85.43.85l-.17,1.3-.94.85-2.07.79-.51,1.2-1.56,1.64-.17,2.41-.43,1-1.81.34-1,.77-1.11.17-1.64,1.22-.94.34-.26,1.11-2.77,2.07-.52,2.1v1.47s-.6,1-.6,1l-.17,1.11-.87.6-.43,2.24-1.64.11-1.29-.23-1,.79-.68,3.35.26.79h2.58s0,.6,0,.6l-3.27,4.91-.17-.09-.28,1.39-.6.77-.26,1-.68.68-.87,3.29-1.45,1.62-.36,1.26-1.22,1.77-.43,1-.62.7-.17,1.49-.85.45-.77.68-1,.51-.6.87-1,.51v.94s.62.87.62.87l-.45.34h-1.28s-.6.85-.6.85l-.19,2.5-.26.7.21-.03,4.31,1.55,2.59.17,4,1.21,10.5-.5-2.68.72-7.76-.17-4-1.21-2.59-.17-4.4-1.51h-2.67s-.85-.45-.85-.45l-1-.17-.34,1-1.2.09-4.14,7.41-.09.45-1.47-.09-.87.51-1.37,1.64-.43,1.11-.15,2.6-.7.79-.17,1.11,1.13,1.64-.17,1.22-1.13,1.62-2.16.09-.26,1v1.28s-1.47.79-1.47.79v1.64s-.09-.09-.09-.09l-.34.17-.26,1.11v1.3s.34.94.34.94l1.3.09.94,1.39-1.56,1.9-.94,1.9-.26,1-1.3,2.16-.68,2.41-.87,1.3-1.79,5.08.17,5.1-.26,1,.09,1,1.2.6-.09,1.13-1,.43-1.47,1.11.34,1.47.77.43,1,.17.09,1.3-.68.85v2.58s.85.62.85.62l1.39,1.9.94.77-.85.51-.62,1.13-1.2.09-.34-1-.7-.6-1,.6-1.51,1.73,2.63.09,4,1.55h2.59s1,1.55,1,1.55h2.59s1.9-.86,1.9-.86l4.31,1.55,2.59.35,1.55-1.21,1.17-1.5v.15s-1.22,1.55-1.22,1.55l-1.55,1.21-2.59-.34-4.31-1.55-1.9.86h-2.59s-1-1.55-1-1.55h-2.59s-4-1.55-4-1.55l-2.63-.09-1.07.6-.26,6.21.6,1,1.2.43,3.88-.26,1,.43v1.3s-.53.94-.53.94l-.34,1.22-.6.77v1.39s-.51,1-.51,1l.2,1.43,1.11.6h1.13s-1.47,2.86-1.47,2.86l-.09,1.2,1,.26v1.13s-.7,2.16-.7,2.16l.09,1.28.53,1,.85.68,1-.85.43.6.17,2.41-.68,1.13-.87,3.44-2.5,1-1-.09-2,4.74-.11,3.46.28,1h2.58s1.11.43,1.11.43l.14,1.13,1.93,1.22,2.59.52.69,2.07,1.55,1.38,1.66.16h0s-1.73-.16-1.73-.16l-1.56-1.39-.68-2.07-2.58-.51-1.9-1.22-.53-.66-4.91-.87-2.67,4.65.43.87.68.09-.43,1.28-.87.62-.17,1.2,1.9,1.13.79.17,1.11-.34-1.5,2.13-2.33.85-.6.87.17,1.2.51,1-1.71,1.62-.24,1.19-.51.94-1.64-.43-.43.87-.51,2.33.09,2.58-3.37,6.3-.34,2.41-1,1.73.77-1,1-.43,1-.09.43,5.44.79.6,1,.43-.6,3.63-2.24.94h-.17s-2.41.79-2.41.79l-2.16,2-2.24,1-.17,2.41.17.34.17,2.52.51.6h1.3s-.09,4.05-.09,4.05l.51,1.64,1.45,1.71.19.53,1.28-.45.87-.6.7-.73.23,1.07-.17,1.22,3.18,1.9.62.17,1.2,1.11,2.16,1.13,2.69,2.84,1,.51,3.63,3.37.09.34,2.42,2.28,1.64,2.5,1.11-.26,1.56-1.45.94-.53-.68,1.47-.6.77v.87s2.24.6,2.24.6l-1.13,1-1.28-.09-.7-1-.6-.34.51,1.3.79,1,.34,1.13-.34,6.55-.36.94.68,1.39.81-.47-.76.71.82,1,.51,2.86,2.07,4.31v1.28s.45,0,.45,0l.17-1.11.43-.87,1.3-.09,1.45,3.46-.17,1.08-1.28.17-1-.6-.51-.85-.26.6.09,1.22.56,1.46.09,1.22,1.22,2.33v.94s6.1,14.41,6.1,14.41l.11,1.22,1,2.33.94,1.2,2.12,4.51,1.17,2.58,3.09,3.8-1.45,1.71-2.67-2.67,1.71,4.14-2.75,2.67-.17,2.86-.34,1.11.34,1.22,1.9,1.73.6.94v1.3s.6.68.6.68l-.09,1.3-.77.51.51.77,1,.51.85,2.35,1.81,1.79.43,1,.87,1.2.77.53.68.77.45.94.68.7,1.9,3.09-1.81.34-.34.45v.43s1.11.26,1.11.26l2.34-.17.43.09,2.26,2.41.94.51,1.56,1.73.43,1,2.67,2.24,1,.52h-.03s4.67,3.8,4.67,3.8l1.2.51,1.9,1.73,3.71,1.11.17-.43-.6-9.92.6-2,.6-.77,1.26.3,1.68-1.51,1.13-3.27-.24,1.4-.86,1.9-1.68,1.51-.13,1.26-.51.77-.09,2.58-.34.87.51,1.2.09,6.21,2,.17,1.37,1.3-.09,1.22-.6.17,1.22,1.62,3.44,2.52.62.85.94.43.43.09h-.11s.11.28.11.28l2.07.87.79.85,1,.7,2,.68.77.68,1,.51.68.62,1.13.51.77.68,6.55,3.54.77.94,1.13.36,7.41,5.93.62.87,1.37,3.69-.26.53,3.71,2.5,4,5,.34,1v3.26s1.22,2,1.22,2l.51,2.33-.09,1.22-.34,1,.09,1,2.75,2.33.6.85.87.7.51.85.68,2.41,2.24,2.33-.6,1.22v1.3s.26,1.2.26,1.2l.79.85,1.11,3.37.09,3.8.68,2.24v1.3s.45.85.45.85l.34,1.47.85.77.51.85.19,1.22.94.94.17,2.43.51.85-.09,1.3-.51.85-3.54,1,.17,1.13,1.22.26.34.87-.09.43.26,1.11.43.87-.43.85-.6.68-1.73,1-.17,1.11.68.79-2.58,2.41v2.5s1,.6,1,.6v1.44s.85.77.85.77l-.26,1,2.67,2.33.26.94.87.87.51.85.34,1.73-.6,2.07.09,4.06-.77,1.81.6.77,1.2.17.62,2.24.68,1.13,2.67.26,1-1.64.77-.6.17-1.13-.51-2.16.43-.94,1-.43,1.37-1.47.87-.43h1.28s.34.94.34.94l2.86,2,.34.09,1.56-.09,1.11.26.43.87,1,.26.94.6,1.3.43,1.3.09,2.58,2.6.09,1.2,1.28.43.62.53.43.85.09,1.2,1.81,1.73h1.28s.87-.6.87-.6l-.17-1.13-.7-.6-.26-1.11.09-1.22-.34-.94-3.35-5.1v-5s.34-1,.34-1l-.43-.94.34-2.07.68-.26.09-1.13,2.33-.34,1.13-.43.43-.85,1-.26.87-.7.34-1,.09-1.22.6-.68,1.22-.09.26-2.33,2.5-1.64.26-1-1.29-1.55-.09-6.38-.79-1.13v-1.3s1.81-3.05,1.81-3.05l.68-.73v-1s-1-.43-1-.43l-1.39-1.47-.43-1.11-.17-3.29.17-.47h.6s.34-.43.34-.43l.49-.34.21-.49-.6-.94v-2.5s-.58-.87-.58-.87l.17-.43.36-.38.21-.43.13-.51-.13-.53v-1.39s-.21-.66-.21-.66l-.28-.38v-.77s-.43-.56-.43-.56l-.21-.58.13-1.11,1-.79.26-.43.13-.47v-1.26s-.17-.56-.17-.56v-.47s.22-.36.22-.36l-.6-.7.51-2.24.68-.77.34-.94-.68-.79-.11-.62-.04.02-.06-3.1-.6-2.16v-5.34s-.87-1.13-.87-1.13l-.17-3.69.43-1v-2.41s2-6.21,2-6.21l1.73-1.73.34-3.44.6-.87,2.43-6.89.6-.77.34-1,1.3-1.73.26-1.2.68-.87.17-2.41.6-.77.36-2.41.85-1.13-.09-1.45,1.65-2.88v-2.58s.6-.6.6-.6v-1.3s2-4.65,2-4.65v-1.73s.85-.51.85-.51v-1.33s.45-1.11.45-1.11l.09-1.22.6-.85.17-1.13.51-.85,1.13-.6.6-.87,2.41-2.16,1.34-1.94v-.94s.51-1,.51-1l.13-3.56.13-.41-.09-1.2.51-1,.09-1.2.62-.79.17-1.11.77-.87.6-2.16,1.13-1.79.77-.7,2.77-1.2.77-.7,1.22-.09.68-.85.26-1,1.81-.85.68-.68,1.64-1,.6-.77,1.22-.09.68-.68,1.3-.19.94-.43.68-.6,1-.26,1.81-1,2.58-3.09,1-.43.77-.53.51-.77,1.73-1.45.51-.85.79-.68,1.88-.79,1.47-1.37.87-5.44.94-.94,1.13-.17,1.45-1.3.34-1.13-.77-1.88.21-1.26-.68-.77-.87-.45-.43-.85.51-.85h1.3s-.26-.87-.26-.87l-1.22-1.37-.43-.87.17-1.11.51-.79,4-3.26,2.33-.34,1-.36,2.16.53.09-2.07,1.64-1.73,1-.26.79-.7.43-2.15,1.45-3,1.47-1.39,2.33-5.08.12-2.12.45-.17.6-1,.77-.68,1.22-.09.34-.94,2.31-2.37v-1.28s.34-1,.34-1l.51-.6.87-3.46.68-1.11.68-2,.7-.77.77-.53.17-1.11.79-1.13.6-3.88.68-.94,1-3.37,1.37-2v-1.3s.53-.85.53-.85v-1.3s.96-.48.96-.48l.6-.79,2.58-.09.87-.43,1.47-2.84.85-.7,2.5-.09.6-2-2.07-2.16-.09-3.69,1-1,.17-2.5-.26-1.22-1.3-2.58-.21-5.42,2-1.39-.09-.94-.68-.7.77-.34.6,1,1,.17,1-.79.53-.85-.36-1-.6-.77,1.64-6.64.68-.85.26-2.77.79-.77.09-1.13.43-.94.94-.87.53-.85.77-2.16.85-.68,1-.26h1.28s1-.7,1-.7l.77-3.8-.09-3.78,1.22-2.6.04-3.94,1.2-4.76,1-.6v-1.3s1.53-4.65,1.53-4.65l-.06-.05-.78-.25.9.25.46-.55.43-1v-1.3s.6-2.24.6-2.24v-1.3s.53-1,.53-1l-1.13-.7-.26-.34,1.22-.09,1-.43.68-.77.36-1,.09-2.5-1.13-1.73v-2.58s-.43-1.13-.43-1.13l-.34-.26.17-1.45.6-1,.09-2.5.85-2.24.11-1.3,1.11-1.62.26-1.13,1-.85.6-2.07.09-2.69.6-1.2.09-8.71.87-1,.34-2.33,1-.43.7-.77-.53-.79-.09-.85.62-.7.6-4.74.43-.85.17-1.13.6-.77-.51-1.73-.6-.43.09-1.22.43-.94v-1.22s1.13-.77,1.13-.77l2.41-3.71.94-4.4-.34-.94v-7.17s.43-1.45.43-1.45l2.24-3.29.19-1.2,1.28-2.69.17-1.11.43-1v-1.33s1.3-2.95,1.3-2.95l.26-2.33.43-.85.09-3.8.36-1.13.09-3.61.72-2.29-.09-3.8-1-2.07.7-2.07.77-.77.5-1.11.7-.6h1s.51.77.51.77l1.3-.09.51-2.07h-1.11s.77-1.73.77-1.73l1-.34-.45-.85.26-1.13,1,.26.68-2.33v-1.28s-4.91-5.1-4.91-5.1l-.34-2.24-.43-.85-.09-8.11.43-.94,3-3.2,1-.56,2.2-2.54.94-.32,1-1.66.26.17.17-.34.34-3.54.51-.51-1.64-2.95v-3.88s.7-2.24.7-2.24l2.67-3.61.85-.53.62-.77,1-.26,2.24-2,1.13-.17.85-.68,2.07-3.71,2.41-.26.17-.09.53-1.3,1-.43.77-1.81.79-.6.09-3.8,1.81-2.67,1.57-1.37.62-1,1-.45.43-.85.09-.87-2.84-.34-5.52-2.76-5-.34-6.21-2.59-3.1-2.41-3.28-1-2.93-2.59-1.34.51v-.03s1.38-.52,1.38-.52l2.93,2.59,3.28,1,3.1,2.41,6.21,2.59,5,.34,5.52,2.76,2.82.34-.15-2.76-.51-.85.09-2.5,1.73-3.29.26-1,1-1.73.34-7.43.34-1.11.6-.79v-1.45s.68-2.41.68-2.41l1.22-1.64.34-1.22,1.81-1.11.68-.79.87-1.79.09-1.22,3.09-2.92,3.12-1.3h1.28s.36-.17.36-.17l-1-.51-.68-.7-.51-.85v-1.3s-1.73-1-1.73-1l-.34-3.37,1.2-.77.6-.87,2.24-.43,1.9-1.2,1.13-.26.34-1.13-.09-1-.43-1.22-.09-1.22-.51-.77-.19-2.41.53-.77-.62-1,.45-1h1.28s-.17-1-.17-1l-.68-.6-.17-.34,1-.45-.85.19-1.22-.45-.09-.85-1.64-1.47.28-1.11,1.2-.09,1,.6.17,1.22,1.2-.09,1-.53-2.5-2.5-2.07-.68-.28-.51-.34-.11-1.11-1.54-.09-.87-2.5-6.21-.09-2.58-.53-.77.26-.43v-1.39s-.34-1.13-.34-1.13l.34-7-2-2.15-.6-1v-1.13s-.94-1.11-.94-1.11l-.43-2.33.09-1.22-.7-.68.34-9.58.45-1.47v-1.28s.85-1.9.85-1.9l-.17-2.5.68-2.07.09-1.22,1.64-3.52.17-1.22.87-1.47,1-.51.68-2,.62-.77.94-.34,2.58-3,.87-.43,2.15-2.5.17-2.41.34-1,1.9-1.11,1-.26,1-1.47.81-.65.84-.4,1.71-2.41.19-1.28,1.2-.7,1.22-.17.85-.34.77-.76,1.13-.17.85-.53,1.3-.09,1.85-.84-2.48-.49-1.59.11.25-.09,1.71-.12,2.53.47.76-.34.53-1,1.2-.08.51-.77,1.9-.87.53-.9,1.28-.12.47-1v-1s-1.32-1.44-1.32-1.44ZM432.31,41.17l-.43-.3h.02s.4.3.4.3ZM430.81,40.64l-.62-.12h0s.61.12.61.12ZM426.98,47.78v-.03s3.17,3.03,3.17,3.03l-3.17-3ZM412.16,50.51h-.02s-1.1-1.22-1.1-1.22v-1.29s.03-.03.03-.03v1.34s1.09,1.2,1.09,1.2ZM403.61,39.55l.12,1.71,2.07,4.63,1.59,1.1,1.09,1.44h-.02s-1.1-1.46-1.1-1.46l-1.59-1.1-2.07-4.63-.12-1.71-.99-1.08h.02s1,1.11,1,1.11ZM380.28,64.44l-1.1-.85-1.96-.83h.04s2,.84,2,.84l1.1.85.49,1.34v1.83s.85,1.46.85,1.46l1.57,1.1h-.07s-1.58-1.11-1.58-1.11l-.85-1.46v-1.83s-.49-1.34-.49-1.34ZM375.15,49.32l-1-1.83-2.44-2.32h.05s2.44,2.33,2.44,2.33l1,1.83.12,5.61-1.83,2.56-1.22,1.1-.61,1.34.37,3.54.72,1.44h-.07s-.73-1.45-.73-1.45l-.37-3.54.61-1.34,1.22-1.1,1.83-2.56-.09-5.61ZM384.99,70.3l.73,2.93,2.56,1.71h-.08s-2.56-1.72-2.56-1.72l-.73-2.93h.08ZM398.99,54.97l-.83,1.08v-.02s.83-1.08.83-1.08v.02ZM398.48,51.78l-.71.82h-.01s.73-.86.73-.86l.59-1.22-.6,1.26ZM395.89,38.18l-1,1.1-.44,1.5,1.25,1.07-1.26-1.07.37-1.59,1-1.1-.36-1.19.07.06.37,1.22ZM392.79,34.15l.7,1.05-.05-.04-.73-1.1-.12-3.53.08.08.12,3.54ZM386.65,21.38l1.34,2.44,3.17-.24v1.83s-.49,1.37-.49,1.37v1.82s-.08-.08-.08-.08v-1.74s.49-1.34.49-1.34v-1.85s-3.17.24-3.17.24l-1.34-2.44-.96-1.05.04-.06,1,1.1ZM377.64,28.7h0s-1.64.12-1.64.12h.01s1.64-.12,1.64-.12ZM366.39,40.66l1.22-.73v-1.83s.85-1,.85-1l.24-.49.85-.85.84-1.81h.03s-.85,1.83-.85,1.83l-.85.85-.24.49-.85,1v1.83s-1.22.73-1.22.73l-.26,1.57.49,1.59,1.21.85h-.04s-1.22-.86-1.22-.86l-.44-1.58.24-1.59ZM359.46,432.79l-2.2-1.19v-.02s2.2,1.2,2.2,1.2h0ZM338.33,478.26h0s-.51-2.35-.51-2.35h0s.51,2.35.51,2.35ZM226.93,668.6l1.21-1.55,1.7-.85v.04s-1.72.86-1.72.86l-1.18,1.51h-.01ZM221.07,628.59l.68,2.05.17,2.07,2.76,1.72,1.72,3.62,1.9,1.38.52,2.24h0s-.52-2.22-.52-2.22l-1.9-1.38-1.72-3.62-2.76-1.72-.17-2.07-.69-2.07h0ZM222.02,601.33h0s-.17-2.39-.17-2.39h0s.17,2.39.17,2.39ZM221.19,606.68h0s-.86-1.88-.86-1.88h0s.85,1.88.85,1.88ZM200.78,337.23l-2.56-.16-.04.05-14.02-2.05-2.59-1-1.38-.17-.73.07.64-.16,20.68,3.42ZM190.74,267.34l-.5-.14.62.14h-.12ZM269.76,118.37v-.03s.77-1.21.77-1.21l1-.35h1.29s4.83,4.91,4.83,4.91l1-.69v.06s-1,.69-1,.69l-4.83-4.91h-1.29s-1,.34-1,.34l-.77,1.19ZM272.82,107.02l2.33,2,1.34,1.77,1.82,6.51-1.91-6.48-1.29-1.81-2.32-1.99h.03ZM318.09,180.03l1.12.6.52.78,1,.52.43,1,1.49,1.66.43,1,.78.86,1,.6.6.86v2.59s.43.52.43.52l-.17.86.09,1.47.58.65-.53-.02v.55s-1.22.62-1.22.62l-1.34,1.09-1,1.24-.13,1.71-2.3,3.78v1.82s-1.47.38-1.47.38h-1.84s-1.22-1.71-1.22-1.71l.24-.38-.23.37,1.22,1.71h1.82s1.46-.37,1.46-.37v-1.82s2.32-3.78,2.32-3.78l-.05-1.81,1-1.22,1.34-1.1,1.22-.61-.07-2.64.17-.86-.43-.52v-2.59s-.6-.86-.6-.86l-1-.6-.78-.86-.43-1-1.47-1.64-.43-1-1-.52-.52-.78-1.12-.6-.34-.86.17-2-.74-.95h.06s.78,1,.78,1l-.17,2,.34.86ZM338.88,73.95l.37-1.46,1.22-.61h.05s-1.22.61-1.22.61l-.36,1.46.73,1.34-.37,3.41-1,1-.61,1.34.85,1.59,1.46.12,1.1.85-1.46,1-.85,1-.61,1.34.61,2.93,3,1.83,2.32,3.54-.85,1.1.24,1.46.12.12-.18-.12-.24-1.46.85-1.1-2.32-3.54-3-1.83-.61-2.93.61-1.34.85-1,1.46-1-1.1-.85-1.46-.12-.85-1.59.61-1.34,1-1,.37-3.41-.73-1.34ZM361.37,127.36l-.02-.02-1.34-3.41v-.72s.09.18.09.18v.73s1.27,3.24,1.27,3.24ZM363.26,130.78l-.09-.04.35-1.26.11.11-.37,1.19ZM313.23,379.21l-2.24,1-1,1.55-1.9.86h0s1.9-.86,1.9-.86l1-1.55,2.24-1,3.1-.17,2.59-5.69.86-7.07.86-1.72v-2.59s1.38-3.8,1.38-3.8v-6.38s-1.72-1.55-1.72-1.55l-.11-2.45.12,2.45,1.72,1.55v6.38s-1.38,3.8-1.38,3.8v2.59s-.86,1.72-.86,1.72l-.86,7.07-2.59,5.69-3.1.17ZM175.34,448.75l-.86,1.72.35,1.7h0s-.36-1.74-.36-1.74l.87-1.71v.03ZM174.48,444.44l.17,2.41.62,1.71-.64-1.74-.17-2.41,1-1.9,1.56-1.22.17-2.06v.03s-.16,2.07-.16,2.07l-1.55,1.21-1,1.9ZM195.16,325.17l5,5.35,1.72.86h2.24s1.72-.86,1.72-.86l1.38.34v.02s-1.38-.34-1.38-.34l-1.72.86h-2.24s-1.72-.86-1.72-.86l-5-5.35v-.02ZM248.7,269.99l-.02.06-.73-.37v-3.66s-1.1-1-1.1-1l-2.09-.4,2.29.43,1.09,1v3.65s.57.29.57.29ZM233.21,391.03h0s1.83-1.5,1.83-1.5h0s-1.83,1.5-1.83,1.5ZM265.04,263.21h-.04s-.87-.75-.87-.75h.03s.88.75.88.75ZM254.85,266.26l-2-1-.24-.37-.92-.84.02-.08,1.09,1,.26.36,1.81.93h-.02ZM243.68,264.4l-.73-1.1-1.42-.44.03-.02,1.58.49.73,1.11-.19-.04ZM217.32,376.73l.03.04h0s-1.03,1.51-1.03,1.51l1-1.55ZM212.8,374.9l.69-1.9h.09s-.69,1.91-.69,1.91l-1.9.35h-.06s1.87-.36,1.87-.36ZM201.29,349.38l-1.78-.32h0s1.78.31,1.78.31h0ZM199.27,364.13l-.06.25-.18.29.24-.54ZM200.59,372l.02.06-3.21,2.36v-.07s3.19-2.35,3.19-2.35ZM203.74,376.97l2.33.16,2.07-.34.52-2.07.09.02-.52,2.06-2.07.34-2.41-.17h0ZM189.15,460.28l2.41,1.72-.06-.02-2.36-1.69h0ZM197.94,461.83l1.1.55-1.11-.55h.01ZM201.04,461.48l-.72.72-.03-.05-.1.07.85-.74ZM200.52,462.52l.89.69-.93-.72-.05-.08.09.11ZM275.56,415.63h0s.02,0,.02,0h-.02ZM276.23,415.92l.03-.03.35,1.11-.37-1.09ZM275.45,255.68l.05-.05,1.71-.36,2.92.36,1.09-.73h2.82s2.67-1.34,2.67-1.34l.85-1.34,1.34-.85.85-1.09,1.22-.73.82-1.29h0s-.85,1.34-.85,1.34l-1.22.73-.85,1.1-1.34.85-.85,1.34-2.68,1.34h-2.84s-1.1.73-1.1.73l-2.93-.37-1.68.36ZM327.92,236.77l.73,1.09,2.76.63-1.38-.09-1.46-.49-.73-1.1-2.2-1.59h-.57s.03-.05.03-.05h.62s2.2,1.6,2.2,1.6ZM343.62,97.92l1.71,1.1-1.1.85-3.17.61-.12,1.46,1.66.23h0s-1.71-.23-1.71-.23l.12-1.46,3.17-.61,1.1-.85-1.65-1.1ZM347.3,154.9l.34,1,.48.64h-.13s-.52-.69-.52-.69l-.34-1-.95-.34v-2.67s.52-.95.52-.95l.26-1.21-.81-.42h.01s1,.52,1,.52l-.29,1.16-.52.95v2.67s.95.34.95.34ZM344.18,148.57l.71.43h-.05s-.86-.53-.86-.53l-.09-2.59.69-.69.09-1.29.35-1-.17-1.28.2.09.17,1.29-.35,1-.09,1.29-.69.69.09,2.59ZM338.23,190.29l.04.69-.11.16.06-.85ZM338.8,192.82l.61,1.22.37,1.46-.61,4.88,1.76,1.76h-.03s-1.74-1.74-1.74-1.74l.6-4.89-.36-1.45-.62-1.24-.85-1-.21-.12.35-.42-.27.4,1,1.15ZM337.68,237.85l.85.85,1.26.35-1.35-.3-.85-.85-3.23-.36.03-.05,3.29.36ZM336.02,193.25l.42-.93.45-.24-.39.21-.45.94-.03.02ZM342.72,240.02l-.59-.32.74.2-.15.11ZM345.63,202.7l2.77,4.7-.05-.02-2.77-4.68h.05ZM350.45,158.43l-1-.6-.83-1.24h.21s.86,1.29.86,1.29l.96.58-.2-.03ZM348.01,103.65l-2-.49-1.22-.73-1.07-1.07.03-.03,1.1,1.1,1.22.73,1.99.49h-.05ZM341.52,138.26l.52.86.17,1.21.38.76h-.15s-.43-.86-.43-.86l-.17-1.21-.52-.86-.78-.6-1.54-1.99.19.09,1.55,2,.78.6ZM333.57,238.64l-.74-.05h.77s-.03.05-.03.05ZM328.76,295.75l-1.38-1.72-.69-.17h0s.69.16.69.16l1.38,1.72h0ZM307.95,241.12l.85.99h-.02s-.85-1-.85-1h.02ZM320.98,241.14h0s1.33-.49,1.33-.49l.85-1.45.04-.15-.03.14-.85,1.46-1.34.49ZM315.95,202.46l-.35-.14.36.13h0ZM292.21,246.73l.51-.25-.52.29v-.04ZM339.06,266.11l-1-1.55-2.41-.34-.69-1.9-1.21-1.38-2.59-.86-.52-.69-.17-4.31h0s.17,4.3.17,4.3l.52.69,2.59.86,1.21,1.38.69,1.9,2.41.34,1,1.55h0ZM343.89,243.87l-.09-.3.09.3h0ZM344.64,236.02v-.02s2.48-1.06,2.48-1.06v.02s-2.48,1.06-2.48,1.06ZM347.93,233.79l1.8.13-.06.05-1.78-.12.04-.06ZM351.38,226.97l1.51-.57h-.02s-1.5.59-1.5.59v-.02ZM355.07,158.05l.07.44.78.52.43.95.09,1.21.34.95-.86.78-.34.17-.34.52-.86.52-.95,1-.27,1.27.08-1.33.95-1,.86-.52.34-.52.34-.17.86-.78-.34-.95-.09-1.21-.43-.95-.94-.62.13-.08.15-.2ZM355.08,158.04l.84-1.11-.27.49-.57.62ZM352.62,64.61l1.41,1.06.12,1.46-.04.03-.12-1.42-1.46-1.1.09-.03ZM350.2,70.78l-2,1.34h-.05s2-1.34,2-1.34l1.4-2.35-1.35,2.35ZM335.38,130.84l-.43.86-.78.78v2.56s-.2-.07-.2-.07v-2.59s.78-.78.78-.78l.43-.86v-2.53s.2.04.2.04v2.59ZM334.94,123.18l-.6.86-.34.95-.09,2.94-.2-.04.09-3,.34-.95.6-.86.26-1.12-.86-.86-.4-.94.17.04.43,1,.86.86-.26,1.12ZM332.49,119.84l-.82-.82.16.06.79.79-.13-.03ZM330.3,194.13l.86-.43-.85.45-1.32-.05,1.31.03ZM306.56,178.03l-.81-.73h.05s.8.73.8.73h-.04ZM289.57,158.23l-.6.86-.09,1.21-.78.95-.78,2.85-1.38,2.24,1.81,1.47,1,2,.09,1.29-.34,1-1.47,1.55-.52,1v1.38s.6,1.29.6,1.29v1.47s-.13,0-.13,0v-1.53s-.6-1.29-.6-1.29v-1.38s.52-1,.52-1l1.47-1.55.34-1-.09-1.29-1-2-1.81-1.47,1.38-2.24.78-2.85.78-.95.09-1.21.6-.86.26-1.12-.95-.52-.77-2.3.12.03.78,2.33.95.52-.26,1.12ZM286.68,153.86l-.95-2.16.13.06.94,2.13-.12-.03ZM282.75,152.38l-1.64-1.29-.59-.99h.04s.6,1.01.6,1.01l1.62,1.25-.03.02ZM277.04,221.45l-.25-1.67.07.05.23,1.67-.05-.05ZM275.56,218.89l-1.76-2.59h0s1.79,2.61,1.79,2.61l-.04-.02ZM220.58,289.92l-1.21-1.09.13.03,1.18,1.05h-.1ZM217.79,288.48h0s.06.01.06.01h-.06ZM212.53,288.82l-2.03-.74,2.04.74h-.02ZM206.39,286.57l-3.8-3.16.1-.06,3.84,3.27-.14-.05ZM197.17,314.86l.86-6.55-.34-1.9.34-1.55-.69-3.79,1-1.55,1.38-1.21.86-1.72.17-2.41-.86-1.9-1.21-1.38-.34-.17.17-2.59h5.17s1.49-.85,1.49-.85l-1.43.86h-5.17s-.17,2.59-.17,2.59l.34.17,1.21,1.38.86,1.9-.17,2.41-.86,1.72-1.38,1.21-1,1.55.69,3.79-.34,1.55.34,1.9-.86,6.55-.86,1.72-.38,2.11.32-2.12.86-1.72ZM198.25,283.09h.17s1.02.95,1.02.95h-.13s-1.06-.95-1.06-.95ZM194.98,320.53l1.2,1.37h0s-1.2-1.36-1.2-1.36h0ZM169.72,425.98h.01s-1,1.56-1,1.56l-1.72,1.21v-.05s1.73-1.2,1.73-1.2l.98-1.52ZM172.36,431.33l.17,2.24-1.71,1.2v-.03s1.7-1.2,1.7-1.2l-.17-2.21h0ZM176.51,437.36l.37,1.01-.37-1.01h0ZM176.68,456.1l-.49-1.7-.22-.36.24.39.52,1.72-2.24,3.28.67,1.68h-.02s-.7-1.72-.7-1.72l2.24-3.29ZM182.5,494.89l2.58-1.56.36-2.07.17-.17.85-.51.34-2.41.87-1.73.17-2.41,3.8-4.65,1.2-.17,5.75-7.41.17-2.58,2.75-3.46.51-2.07.05.04-.52,2.07-2.76,3.45-.17,2.59-5.52,7.42-1.21.17-3.79,4.66-.17,2.41-.86,1.72-.34,2.41-.86.52-.17.17-.34,2.07-4.28,3.1,1.42-1.6ZM240.51,545.31v-.07s1.43-.48,1.43-.48l.07.05-1.5.5ZM237.93,543.42h-2.24s-1,1.55-1,1.55l-3.49,1.69-1.21,1.55-1.9,1-.04-.02,1.86-.98,1.21-1.55,3.45-1.72,1-1.55h2.24s.69.17.69.17h0s-.57-.14-.57-.14ZM233.01,430.37l-1.32,1.43,1.34-1.51h2.59s1.89-.69,1.89-.69v.07s-1.91.69-1.91.69h-2.59ZM237.69,427.18l1.21-1.38.69-1.9,1.21-1,1.21-2.93,1.55-1.72,2.24-.35,1.55-1.21,1.9-.86,1-1.72,2.93-2.41,4.31-.86,1.55-1,4.48-.69,1.64-.82h.21s-.15.05-.15.05l-1.72.86-4.48.69-1.55,1-4.31.86-2.93,2.41-1,1.72-1.9.86-1.55,1.21-2.24.34-1.55,1.72-1.21,2.93-1.21,1-.69,1.9-1.19,1.36v-.06ZM268.28,408.53l4.31,1.55h.34s.04.03.04.03h-.33s-5.96-1.68-5.96-1.68l1.6.1ZM281.25,413.21l-2.07,1.38-2.07.52-.75.68.7-.7,2.07-.52,2.07-1.38,2.07-.52.52-2.41-.69-2.07-1.55-1.21,1.21-1.38.52-2.24,1.38-1.55,1.55-1,.52-2.07,1.55-1,2.41.17,1.9-.86h2.59s.86-.34.86-.34l.03.02-.84.34h-2.59s-1.9.86-1.9.86l-2.41-.17-1.55,1-.52,2.07-1.55,1-1.38,1.55-.52,2.24-1.21,1.38,1.55,1.21.69,2.07-.52,2.41-2.07.52ZM303.16,390.31v5.17s-3.28,2.76-3.28,2.76h-.05s3.28-2.77,3.28-2.77v-5.17s.52-2.07.52-2.07l1.55-1-1.41-4.44,1.72-.86h0s-1.72.86-1.72.86l1.45,4.45-1.55,1-.52,2.07ZM362.58,205.15l.71,1.18-.05-.03-.7-1.17.04.02ZM365.08,132.72l-.09-.03-.12-1.22.09.04.12,1.21ZM356.99,104.66l.49,1.34,2,2,1.1.61,1.1,1.22.12,1.71.61,1.71,1.59.49v1.83s-1.1.73-1.1.73l-.73,1.1-2.2,1.83-.73,1.34.24,1.58-.09-.18-.24-1.59.76-1.15,2.2-1.83.73-1.1,1.1-.73v-1.83s-1.59-.49-1.59-.49l-.61-1.71-.12-1.71-1.1-1.22-1.1-.61-2-2-.49-1.34-1-1-.24-.61-.84-.49h.05s.85.49.85.49l.24.61,1,1ZM355.86,62.13l-.61,1.1h0s.57-1.03.57-1.03l-1.59-1.1-.85-1-.24-1.58.04-.08.24,1.59.85,1,1.59,1.1ZM347.69,53.07h3.66s.85.61.85.61l1.22,1.46.37,1.59v.49s-.04.08-.04.08v-.49s-.37-1.59-.37-1.59l-1.22-1.46-.85-.61h-3.66s-3.54-.85-3.54-.85l-1.34-1.22v-.07s1.38,1.21,1.38,1.21l3.54.85ZM331.68,43.85l.85.24.85,1.1,3.41.37,6.34,3v.08s-6.33-2.99-6.33-2.99l-3.41-.37-.85-1.1-.85-.24-.85-1-.24-.57,1.08,1.48ZM329.61,118.55h-.14s-.28-.43-.28-.43h.13s.29.43.29.43ZM325.99,114.85l.09.78.26.43,1,.6.69.86.93.5h-.01s-1.12-.6-1.12-.6l-.69-.86-1-.6-.26-.43-.09-.78-.59-1.62.19.08.6,1.64ZM322.92,111.23v1.23s-.2-.04-.2-.04v-1.26s.2.07.2.07ZM318.01,112h-.07s-4.21-3.24-4.21-3.24l.53.24,3.75,3ZM312.72,107.99l-.32-.24.12.04.2.2ZM311.14,107.24l-.19-.07v-.87s.19.03.19.03v.92ZM304.86,95.11l.34,3.79-1.21,1.9-.26,1.12,2.07,1.29.43.61,2.33,1.84-.11-.04-2.41-1.9-.43-.6-2.07-1.29.26-1.12,1.21-1.9-.34-3.79-.83-.61h.07s.95.7.95.7ZM295.91,90.84l-.69.6.17,1.29.48.92h-.15s-.52-1.01-.52-1.01l-.17-1.29.69-.6-.77-.42h.01s.95.51.95.51ZM291.57,91.34h-.07s-1.05-.8-1.05-.8l.12.04,1,.77ZM287.82,90.06h-.11s-.83-.92-.83-.92l.16.06.78.86ZM284.71,82.85l.78,2.07-.43,1-.09,2.48-.19-.07.09-2.5.43-1-.78-2.07-.08-1.13h.18s.09,1.22.09,1.22ZM283.33,81.47h-.11s-1.39-1.4-1.39-1.4h.11s1.39,1.4,1.39,1.4ZM276.36,80.67h-.03s-1.39-.88-1.39-.88l.03-.02,1.39.9ZM269.88,105.64l.35.69.09.42h-.04s-.09-.43-.09-.43l-.35-.69-.93-.59h.02s.95.6.95.6ZM261.15,101.95l.33.48-.33-.47-.12-.35.12.34ZM255.55,130.01l3.33.86.47-.34,1.38-1.64.26-2.5.86-2,1.12-.26.69-1,1-.43.78-.6.34-1,.6-.95,3.69-.86.02.05-3.71.86-.6.95-.34,1-.78.6-1,.43-.69,1-1.12.26-.86,2-.26,2.5-1.71,2.11.68.83,1,.52h2s.6.78.6.78l1-.43.86-.69,2.41-.17-.6.78.95.52-.69.86-.17,1.12-.6.95-.26.86,1.38.52.17,1.21,1.12,2,.95.95.6,1,2.24,1.47,1.21.17.78.86.09,1.21,1.21.52,1.21.17,1.42,2.19.84.59h-.03s-.86-.61-.86-.61l-1.38-2.16-1.21-.17-1.21-.52-.09-1.21-.78-.86-1.21-.17-2.24-1.47-.6-1-.95-.95-1.12-2-.17-1.21-1.38-.52.26-.86.6-.95.17-1.12.69-.86-.95-.52.6-.78-2.41.17-.86.69-1,.43-.6-.78h-2s-1-.52-1-.52v.02s-1.38-1-1.38-1l-2.76-.78v-.12ZM235.73,221.85l-.54-.91.08.06.47.85ZM199.18,194.69l.24,1.34,1.59,2.56,3,1.22.61,1.22h.24s5.12,6.59,5.12,6.59l2.19,1.46.85,1.22,2.07.24.61.24.85,1.1,1.46.49,1,1.1,2.44,1.34,1,1.34,1.71.49,1.89,1.67-1.98-1.67-1.71-.49-1-1.34-2.43-1.34-1-1.09-1.45-.49-.85-1.09-.62-.26-2.07-.23-.85-1.22-2.2-1.47-5.12-6.59h-.23s-.62-1.22-.62-1.22l-3.05-1.22-1.58-2.56-.26-1.34-1.83-2.48,1.98,2.48ZM193.77,268.21l.23.6v3.67s1.09,1.45,1.09,1.45l1.22,1v1.94s-.6,1.34-.6,1.34l1,4.73h-.2s-1-4.77-1-4.77l.61-1.34v-2s-1.22-1-1.22-1l-1.1-1.46v-3.57s-.24-.61-.24-.61l-1.07-.83h.18s1.11.85,1.11.85ZM178.73,263.2l1.34.62,1.09.85,1.47.36,1.32.73h.07s-.23,0-.23,0l-1.34-.73-1.46-.37-1.1-.85-1.34-.61-.99-1.58h.17s1,1.58,1,1.58ZM173.04,334.5l1.55-.05-1.46.14-.45-.17.36.08ZM163.21,330.74l.13.07-.04-.02-2.93-.34-.03-.04,2.87.33ZM144.58,328.33l10,.17,1.72-.86,3.45,1.9h0s-3.36-1.85-3.36-1.85l-1.72.86-10-.17-.86.23.77-.28ZM128.61,386.69l4.31-1.72,1.9,1,1.21-4.14,1-1.72,2.76.17,1.72-.86.69-2.07,4-1.21.69-1.9,1.55-1.21,1.21-1.55,1.9.86,1.55,1.21,1.9.69,4-1.55h5.17s3.62-1.9,3.62-1.9l3.39,1.02-3.44-.82-3.62,1.9h-5.17s-4,1.55-4,1.55l-1.9-.69-1.55-1.21-1.9-.86-1.21,1.55-1.55,1.21-.69,1.9-4,1.21-.69,2.07-1.72.86-2.76-.17-1,1.72-1.21,4.14-1.9-1-4.31,1.72-1.2,1.37.04-.19,1.21-1.38ZM118.26,391.18h2.24s0,2.24,0,2.24l2.41.86.69-1.9,3.27-1.9-.04.2-3.28,1.9-.69,1.9-2.41-.86v-2.24s-2.24,0-2.24,0l-1.3,1.3-.03-.12,1.38-1.38ZM123.91,434.51h0s-1.67-.97-1.67-.97h0s1.68.97,1.68.97ZM106.73,446.66l3.06.85h0s-3.12-.85-3.12-.85l-.79-1.29v-.09s.86,1.38.86,1.38ZM103.67,531.87l1.11-1.11,1-.38.08.03-1.08.43-1.11,1.03ZM111.67,532.57l-2.22-.84,2.12.78,1.73-.87,1.2.7h0s-1.12-.63-1.12-.63l-1.72.86ZM124.24,534.29l-1,1.38-1.38-.17-1.9-.86-.34.52h-2.43s-.07-.07-.07-.07h2.37s.36-.51.36-.51l1.9.85,1.37.17,1-1.39.53.12-.41-.04ZM139.09,536.8l-2.59.17h-.02s2.48-.17,2.48-.17l1.69-1.57-1.56,1.57ZM146.75,530.48l-2.07.69-.96.96.74-1.06,2.07-.68,2.41-.17.16.09-2.35.17ZM155.64,525.62l-.69.86-1,.52-1,4.31h-2.07s-.15-.09-.15-.09h2.01s1-4.31,1-4.31l1-.51.7-.87.34-2.24,2.58-6,2.07-.51.68-2.07.17-2.41,3.8-.17.17-2.41,6.21-4.48,2.41-3.8,6.02-4.09-5.74,4.15-2.41,3.79-6.27,4.51-.17,2.41-3.8.17-.17,2.41-.69,2.07-2.07.52-2.59,6-.34,2.24ZM157.13,609.78l.07-.98.22-.77-.3,1.75ZM163.29,549.45l-1,6.73-.86,1.72-.34,2.24-.86,1.9.17,10.35-.52.86.17,3.1-1.21,4.66-1.21,1.55-1.43,4.13-.17,12.42,2.41,2.93-.03.18v-.15s-2.41-2.93-2.41-2.93l.17-12.42,1.38-4.14,1.21-1.55,1.21-4.66-.17-3.1.52-.86-.17-10.35.86-1.9.34-2.24.86-1.72,1-6.73,1.72-.86h.02s-1.66.84-1.66.84ZM172.91,550.83h-.04s1.86-.84,1.86-.84h.02s-1.84.84-1.84.84ZM197.21,539.27l-1.9,1.38-2.41.17-4.48,3.1-.86.34-2.76,2.24-.17.86-1.72,2.24-1.55,1.2h-.06s1.53-1.19,1.53-1.19l1.72-2.24.17-.86,2.76-2.24.86-.35,4.48-3.1,2.41-.17,1.9-1.38,2.07-.52h.03s-2.02.52-2.02.52ZM211.36,539.95l-2.24,3.28-2.07.52-.69.69h-.08s.69-.69.69-.69l2.07-.52,2.24-3.28,2.07-.52h.08s-2.07.52-2.07.52ZM219.64,614.63l-.69-2.07h0s.69,2.05.69,2.05l1.21.69.35,2.93,2.79,5.52v.05s-2.79-5.55-2.79-5.55l-.35-2.93-1.21-.69ZM220.21,654.27l.68.37-.69-.36v-.02ZM231.03,675.89l.52-2.24,1.21-.69-1.9-.69-.22-.59.24.59,1.9.69-1.21.69-.52,2.24.34,1.55h-.02s-.34-1.55-.34-1.55ZM238.61,680.85l-.86-1.9-1.9-.69-1.55-1h.02s1.55,1,1.55,1l1.9.69.86,1.9h-.02ZM243.44,681.37l-2.07-.52h.02s2.07.52,2.07.52l1.9,3.27h-.02s-1.9-3.27-1.9-3.27ZM250.2,571.79l-.23,2.41.16-2.34,1.21-1.38.34-6.73.07-.07-.34,6.73-1.21,1.38ZM253.06,562.37l-.69-1.55v-2.59s-.69-2.24-.69-2.24l-1.72-.86-2.24-.17-1.9-1.72-.52-1-.08-.67.15.6.52,1,1.9,1.72,2.24.17,1.72.86.69,2.24v2.59s.69,1.55.69,1.55l-.07.07ZM263.27,455.12l-4.63,3.9-2.44,1-2,2.44.73.49.24,1.22-1,2.68v2.68s.73,2.68.73,2.68l-2.44,1.22-1.46,3.41-2.2,1.46.73,15.37-2.44,2.68-1.22,2.93,1.71,1.71,1,2.93-4.39,3.17v2.7s-.63,1.2-.63,1.2l-6.83,8.78-.73,2.93v3.66s1.22,2.68,1.22,2.68l1,1-.24,3.41,2,5.85,3.66.24,2,2.68-.49,4.63-.31.66v1.02s-.24-1.97-.24-1.97l.4.27.49-4.61-2-2.68-3.66-.24-2-5.85.24-3.41-1-1-1.22-2.68v-3.66s.73-2.93.73-2.93l6.83-8.78.49-1.22v-2.68s4.39-3.17,4.39-3.17l-1-2.93-1.71-1.71,1.22-2.93,2.44-2.68-.73-15.37,2.2-1.46,1.46-3.41,2.44-1.22-.73-2.68v-2.68s1-2.68,1-2.68l-.24-1.22-.73-.49,2-2.44,2.44-1,4.63-3.9,3.41-4.39h.29s-3.41,4.39-3.41,4.39ZM276.73,447.27l-2,2-5.37,1.46h-.29s5.37-1.46,5.37-1.46l2-2,5.8-2.43.54-2.08-.17-2.39.09.06.17,2.41-.51,2.03-5.63,2.4ZM304.16,468.62l.32-.8.03-.02-.32.82h-.03ZM395.01,219.53l-5.69-.69-5.52-3.79-2.76-.34-2.07-.86h-5.52s-8.21-5.26-8.21-5.26l-.87,1-1.58.85-.61,1.34-.49,5-1.46,2.93-1,1.22-1.22.85h-1.83s-1,1.1-1,1.1l-.5,1.14.48-1.24,1-1.09h1.81s1.22-.85,1.22-.85l1-1.22,1.47-2.95.49-5,.6-1.34,1.58-.85.85-1-.83-1.42.06.04.87,1.44,8.21,5.26h5.52s2.07.86,2.07.86l2.76.34,5.52,3.8,5.69.69,2-.5.03.02-2.07.52ZM400.87,214.39l-1.55-.69-1.55,1-2.21.51v-.03s2.25-.52,2.25-.52l1.55-1,1.55.69,1.34-1.17h0s-1.38,1.21-1.38,1.21ZM400.49,112.61l-1.58,1.22-1.71-.49-1.22.73-1.46.36-.61,1.34.12,1.71-.24,1.58-1.34,1.1.24,1.71,1,1,.49,1.46v1.83s-1,2.93-1,2.93l-1.58.24-1.1.85-.73,1.1-1.46.49-1.83.12-4,2.19-.37,1.71-3.54,2.32-3.17.49-1.58,1-3.51-.2-.06-.02v-.03s-.02.02-.02.02l-.82-.44-.37-3.41-1.34-1-.99-1.32.08.02,1,1.34,1.34,1,.37,3.41,1,.42,3.26.19,1.59-1,3.17-.49,3.54-2.32.37-1.71,4-2.19,1.83-.12,1.46-.49.73-1.1,1.1-.85,1.58-.24,1-2.93v-1.83s-.49-1.46-.49-1.46l-1-1-.24-1.71,1.34-1.1.24-1.59-.12-1.71.61-1.34,1.46-.37,1.22-.73,1.71.49,1.59-1.22.37-1.46.04.04-.37,1.46ZM407.05,109.45l-7.18.85-.05-.04,7.19-.85,2.44-1.22.04.04-2.44,1.22ZM414.86,104.14l-.37,1.16-1.22,1.1-.73,1.22-1.46.49-.49,1.34-.04-.04.49-1.34,1.46-.49.73-1.22,1.22-1.1.37-1.16,3.29-1.77.96-1.15-.92,1.19-3.29,1.77ZM422.79,99.19l-1.53.23h.02s1.59-.25,1.59-.25l5.09.73-.05.02-5.12-.73ZM429.2,99.29h0s1.63-.36,1.63-.36h0s-1.64.36-1.64.36ZM436.96,88.23l-1.54.23.03-.02,1.58-.24,3.64.24-.05.03-3.66-.24ZM450.15,76.02l-1.59-.61-3.51-.24.04-.03,3.54.24,1.59.61h1.96s-.03.03-.03.03h-2ZM457.72,71.7l.13-.09,3.57-.23-.28.1-3.42.22Z"/>
  <polygon class="cls-1" points="374.02 417.09 374.01 417.09 373.99 417.1 374.02 417.09"/>
</svg>